<svg width="17" height="19" viewBox="0 0 17 19" fill="none" xmlns="http://www.w3.org/2000/svg">
<path d="M14.2287 2.13167H13.3153V1.21818C13.3153 0.975906 13.219 0.743556 13.0477 0.572243C12.8764 0.40093 12.644 0.304688 12.4018 0.304688C12.1595 0.304688 11.9271 0.40093 11.7558 0.572243C11.5845 0.743556 11.4883 0.975906 11.4883 1.21818V2.13167H6.00732V1.21818C6.00732 0.975906 5.91108 0.743556 5.73976 0.572243C5.56845 0.40093 5.3361 0.304688 5.09383 0.304688C4.85155 0.304688 4.6192 0.40093 4.44789 0.572243C4.27658 0.743556 4.18033 0.975906 4.18033 1.21818V2.13167H3.26684C2.54002 2.13167 1.84297 2.4204 1.32903 2.93434C0.815095 3.44828 0.526367 4.14533 0.526367 4.87215V15.834C0.526367 16.5609 0.815095 17.2579 1.32903 17.7719C1.84297 18.2858 2.54002 18.5745 3.26684 18.5745H14.2287C14.9556 18.5745 15.6526 18.2858 16.1666 17.7719C16.6805 17.2579 16.9692 16.5609 16.9692 15.834V4.87215C16.9692 4.14533 16.6805 3.44828 16.1666 2.93434C15.6526 2.4204 14.9556 2.13167 14.2287 2.13167ZM3.26684 3.95865H4.18033V4.87215C4.18033 5.11442 4.27658 5.34677 4.44789 5.51808C4.6192 5.68939 4.85155 5.78564 5.09383 5.78564C5.3361 5.78564 5.56845 5.68939 5.73976 5.51808C5.91108 5.34677 6.00732 5.11442 6.00732 4.87215V3.95865H11.4883V4.87215C11.4883 5.11442 11.5845 5.34677 11.7558 5.51808C11.9271 5.68939 12.1595 5.78564 12.4018 5.78564C12.644 5.78564 12.8764 5.68939 13.0477 5.51808C13.219 5.34677 13.3153 5.11442 13.3153 4.87215V3.95865H14.2287C14.471 3.95865 14.7034 4.0549 14.8747 4.22621C15.046 4.39752 15.1422 4.62987 15.1422 4.87215V8.52611H2.35335V4.87215C2.35335 4.62987 2.44959 4.39752 2.62091 4.22621C2.79222 4.0549 3.02457 3.95865 3.26684 3.95865ZM14.2287 16.7475H3.26684C3.02457 16.7475 2.79222 16.6513 2.62091 16.48C2.44959 16.3087 2.35335 16.0763 2.35335 15.834V10.3531H15.1422V15.834C15.1422 16.0763 15.046 16.3087 14.8747 16.48C14.7034 16.6513 14.471 16.7475 14.2287 16.7475Z" fill="black" fill-opacity="0.4"/>
<path d="M5.09391 14.0072C5.59842 14.0072 6.0074 13.5982 6.0074 13.0937C6.0074 12.5892 5.59842 12.1802 5.09391 12.1802C4.5894 12.1802 4.18042 12.5892 4.18042 13.0937C4.18042 13.5982 4.5894 14.0072 5.09391 14.0072Z" fill="black" fill-opacity="0.4"/>
<path d="M12.4014 12.1802H8.74748C8.5052 12.1802 8.27285 12.2764 8.10154 12.4477C7.93023 12.619 7.83398 12.8514 7.83398 13.0937C7.83398 13.3359 7.93023 13.5683 8.10154 13.7396C8.27285 13.9109 8.5052 14.0072 8.74748 14.0072H12.4014C12.6437 14.0072 12.8761 13.9109 13.0474 13.7396C13.2187 13.5683 13.3149 13.3359 13.3149 13.0937C13.3149 12.8514 13.2187 12.619 13.0474 12.4477C12.8761 12.2764 12.6437 12.1802 12.4014 12.1802Z" fill="black" fill-opacity="0.4"/>
</svg>
