<svg width="18" height="25" viewBox="0 0 18 25" fill="none" xmlns="http://www.w3.org/2000/svg">
<path d="M8.79205 24.5235C8.22505 23.7934 7.66368 23.0867 7.11951 22.367C5.58583 20.3385 4.13704 18.2518 2.84492 16.0597C1.99218 14.613 1.20396 13.1334 0.639653 11.5453C0.384372 10.8268 0.176144 10.0947 0.121128 9.33175C0.0710832 8.5906 0.134111 7.84615 0.308042 7.12396C0.905746 4.58125 2.34063 2.66275 4.61269 1.36847C5.69863 0.749649 6.9126 0.389492 8.16031 0.315977C10.6867 0.158345 12.8929 0.928126 14.7467 2.65102C16.2073 4.00839 17.0713 5.69405 17.3972 7.66126C17.6191 9.00068 17.4295 10.2882 16.9652 11.551C16.4875 12.8504 15.8758 14.0853 15.198 15.289C14.0015 17.4138 12.6503 19.4386 11.2008 21.3973C10.4538 22.4066 9.67471 23.3919 8.90953 24.3877C8.87934 24.427 8.84471 24.4629 8.79205 24.5235ZM8.79444 21.7333C8.83459 21.6848 8.85803 21.6587 8.87922 21.6308C10.4495 19.5549 11.9318 17.419 13.2585 15.1779C14.0188 13.8936 14.7218 12.581 15.2683 11.1876C15.7241 10.0255 15.8944 8.84759 15.6435 7.60743C14.8973 3.91874 11.3226 1.44553 7.59843 2.12511C5.07423 2.58574 3.30595 4.05914 2.32446 6.42967C1.70735 7.92009 1.65775 9.4373 2.24876 10.9659C2.65268 12.0083 3.12683 13.0221 3.66793 14.0003C4.89268 16.2192 6.30219 18.3194 7.78822 20.3694C8.11626 20.8218 8.4515 21.2688 8.79444 21.7333Z" fill="black" fill-opacity="0.4"/>
<path d="M8.80466 12.7552C6.94641 12.7698 5.2091 11.2783 5.17507 9.19082C5.14258 7.1965 6.67463 5.61026 8.61689 5.50355C10.6535 5.3917 12.3743 6.99815 12.4283 9.0169C12.4824 11.0365 10.9102 12.7337 8.80466 12.7552ZM8.8085 7.22321C7.72258 7.23741 6.88195 8.09164 6.89582 9.16693C6.90896 10.1866 7.78859 11.0533 8.79406 11.0371C9.87353 11.0198 10.7207 10.1567 10.7083 9.08672C10.6967 8.06784 9.82218 7.2101 8.80856 7.22345L8.8085 7.22321Z" fill="black" fill-opacity="0.4"/>
</svg>
