<svg width="96" height="95" viewBox="0 0 96 95" fill="none" xmlns="http://www.w3.org/2000/svg">
<circle cx="48.0004" cy="47.7492" r="45.5984" stroke="white" stroke-width="3.13943"/>
<path d="M43.3685 54.325C44.7768 52.9093 46.1096 51.5673 47.4449 50.2284C52.6349 45.0283 57.8255 39.8291 63.0165 34.6305C63.4516 34.1837 63.9804 33.8391 64.5646 33.6219C65.1487 33.4047 65.7737 33.3201 66.3945 33.3743C67.0152 33.4285 67.6163 33.6201 68.1542 33.9352C68.692 34.2504 69.1533 34.6813 69.5047 35.1968C70.0999 36.0047 70.3773 37.004 70.2841 38.0037C70.191 39.0035 69.7338 39.9338 68.9996 40.6175C61.5019 48.1503 53.9969 55.6749 46.4849 63.1915C46.0807 63.5987 45.6 63.922 45.0706 64.1426C44.5412 64.3631 43.9736 64.4766 43.4002 64.4766C42.8268 64.4766 42.259 64.3631 41.7296 64.1426C41.2002 63.922 40.7196 63.5987 40.3153 63.1915C35.8955 58.7299 31.4603 54.2831 27.0095 49.8511C26.3737 49.2388 25.9427 48.4444 25.776 47.5769C25.6092 46.7094 25.7148 45.8113 26.0782 45.0064C26.5302 44.0136 27.3495 43.2355 28.3632 42.8359C29.3769 42.4364 30.5059 42.4467 31.5121 42.8648C32.0869 43.1187 32.6113 43.4741 33.0603 43.9141C36.4322 47.3034 39.8083 50.6889 43.1885 54.0703C43.2545 54.1508 43.3147 54.2359 43.3685 54.325Z" fill="white"/>
</svg>
